# xmcd
#
# Track frame offsets:
#	182
#	17970
#	38170
#	57080
#	71255
#	86265
#	97470
#	112077
#	125537
#	138170
#	153277
#	167935
#	179517
#	195725
#	213252
#	224095
#	240562
#
# Disc length: 3434 seconds
#
# Revision: 1
# Processed by: cddbd v1.4PL0 Copyright (c) Steve Scherf et al.
# Submitted via: audiograbber 1.80
#
DISCID=f90d6811
DTITLE=Various Artist - Country Radio
DYEAR=1900
DGENRE=
TTITLE0=Crakajak - Travellin' Man
TTITLE1=Fisk and Christian - Going Out Of Style
TTITLE2=John Wibberly - Hearts On The Run
TTITLE3=Graig Giles - You Used To Call Me Sweetheart
TTITLE4=Cam Fletcher - Back To The Country
TTITLE5=Moonee Valley Drifters - Rain On My Window
TTITLE6=Paul Gibbs - Not The Only Fool
TTITLE7=Kim Lawford - Where Are You Now
TTITLE8=Tanya Self - The Dumaresq
TTITLE9=T.J. Dennis - My Way, Or No Way At All
TTITLE10=Grant Petersen - Letter Of Contentment
TTITLE11=Raelene Smith - Drifting Man
TTITLE12=Jackie Bristow - Trying To Find My Way Home
TTITLE13=Craig Byrne - If Only
TTITLE14=Lesley Avril - Break It To Me Gently
TTITLE15=Dave Debs and Rosemary Rae - A Small Romance
TTITLE16=Shot To Pieces - Don't Forget To Remember Me
EXTD=
EXTT0=
EXTT1=
EXTT2=
EXTT3=
EXTT4=
EXTT5=
EXTT6=
EXTT7=
EXTT8=
EXTT9=
EXTT10=
EXTT11=
EXTT12=
EXTT13=
EXTT14=
EXTT15=
EXTT16=
PLAYORDER=
